# xmcd CD database file
#
# Track frame offsets:
#	150
#	36021
#	63742
#	79161
#	111592
#	142142
#	165447
#	195174
#	228009
#
# Disc length: 3504 seconds
#
# Revision: 0
# Processed by: cddbd v1.5.1PL0 Copyright (c) Steve Scherf et al.
# Submitted via: CDex 1.51
#
DISCID=730dae09
DTITLE=Baseline - Returns
DYEAR=1996
DGENRE=Jazz
TTITLE0=Though Dreamers Die
TTITLE1=The Avenger
TTITLE2=Che Cha
TTITLE3=Northsea Night
TTITLE4=Strike Again
TTITLE5=Loudly At Night
TTITLE6=The Magic Kingdom
TTITLE7=Returns
TTITLE8=Wheeling
EXTD=YEAR: 1996
EXTT0=
EXTT1=
EXTT2=
EXTT3=
EXTT4=
EXTT5=
EXTT6=
EXTT7=
EXTT8=
PLAYORDER=
